<svg viewBox="0 0 16 16" fill="none" xmlns="http://www.w3.org/2000/svg"><path d="M4.53021 8.33633C3.67077 9.71688 3.6713 11.6298 4.93708 12.9662C5.04469 13.0737 4.62287 13.3796 4.7827 13.6816C4.88276 13.9162 5.16365 14.0412 5.28823 14.1188C7.33359 15.1792 10.4346 14.4638 11.5773 12.6284C12.7199 10.793 11.7578 8.2245 9.9224 7.08189C8.08698 5.93929 5.67282 6.50092 4.53021 8.33633Z" fill="url(#simplified-rsdoctor-16-1)"/><path d="M4.20142 8.1316C5.45707 6.11468 8.11 5.49751 10.127 6.75308C11.1261 7.37506 11.8813 8.37915 12.2352 9.47649C12.5896 10.5757 12.5495 11.7994 11.906 12.8331C11.2657 13.8617 10.1018 14.5448 8.85972 14.8366C7.61528 15.1289 6.2308 15.0437 5.10995 14.4626L5.0965 14.4555L5.08356 14.4476C5.07051 14.4395 4.90589 14.3491 4.801 14.2741C4.68132 14.1886 4.52518 14.0526 4.43355 13.849C4.26011 13.5046 4.43228 13.1858 4.50247 13.0614C3.25432 11.5913 3.29807 9.58269 4.20142 8.1316ZM9.92239 7.08187C8.08699 5.93927 5.67282 6.50094 4.53021 8.33633L4.49054 8.40138C3.67105 9.77647 3.69101 11.6507 4.93699 12.9662C5.0446 13.0737 4.62285 13.3797 4.78268 13.6816C4.88273 13.9163 5.16355 14.0413 5.28813 14.1188C7.30155 15.1627 10.338 14.4857 11.5223 12.7136L11.5772 12.6284C12.7019 10.8216 11.7873 8.30459 10.0078 7.1365L9.92239 7.08187Z" fill="#473535"/><path d="M10.0146 7.12104C8.11413 5.9361 5.64531 6.46861 4.50048 8.31041C3.63604 9.70116 3.77401 11.4406 4.71149 12.7194C4.24356 11.5845 4.30099 10.2684 4.98381 9.16986C6.12864 7.32808 8.59738 6.7957 10.4979 7.98063C10.9632 8.27074 11.3511 8.63695 11.6551 9.05156C11.3385 8.28388 10.7814 7.59915 10.0146 7.12104Z" fill="#FF806C"/><path d="M8.12695 7.26701L8.12695 8.28654L7.22852 8.28654L7.22852 7.26701L8.12695 7.26701Z" fill="#B6D6FF" stroke="#5B4240" stroke-width="0.333997"/><path d="M8.00293 8.29324L8.01758 8.44461C8.04167 8.69369 8.05082 8.81264 8.06836 8.92215C8.08531 9.0279 8.11066 9.12563 8.16797 9.32645L8.20996 9.47586L8.06445 9.52859L7.71484 9.65652L7.54004 9.72L7.49512 9.54031C7.38617 9.10378 7.40009 9.02824 7.35059 8.47488L7.33398 8.29324L8.00293 8.29324Z" fill="#995D54" stroke="#5B4240" stroke-width="0.333997"/><ellipse cx="7.67739" cy="4.21702" rx="3.26931" ry="3.21699" fill="#995D54" stroke="#5B4240" stroke-width="0.333997"/><ellipse cx="7.67761" cy="4.21698" rx="2.62232" ry="2.58036" fill="#B6D6FF" stroke="#5B4240" stroke-width="0.333997"/><path d="M9.74508 5.38633L6.85645 2.01549C7.13975 1.92215 7.30695 1.891 7.61798 1.87368L10.0182 4.68578C9.94207 4.98873 9.87946 5.13941 9.74508 5.38633Z" fill="white"/><path d="M8.87702 6.24396L5.86157 2.69792L6.03631 2.51923L9.08722 6.11221L8.87702 6.24396Z" fill="white"/><path d="M7.81262 6.55795L5.34094 3.72734C5.38052 3.56665 5.40789 3.47948 5.46694 3.33029L8.24917 6.49354C8.08671 6.52977 7.99382 6.54765 7.81262 6.55795Z" fill="white"/><ellipse cx="9.48244" cy="11.2285" rx="0.649008" ry="0.471909" transform="rotate(162.091 9.48244 11.2285)" fill="white"/><ellipse cx="9.40121" cy="12.7002" rx="1.22482" ry="0.780419" transform="rotate(156.698 9.40121 12.7002)" fill="#FEFEFE"/><path d="M6.17989 14.6574C4.57748 14.1939 4.3623 13.6911 4.65023 13.193C5.12831 12.366 7.10779 12.4767 7.15433 11.7045C7.18047 11.2708 6.772 10.8549 7.03592 10.223C7.37995 9.39927 9.20252 9.62325 8.95155 8.27571" stroke="#473535" stroke-width="0.387281" stroke-linecap="round"/><defs><linearGradient id="simplified-rsdoctor-16-1" x1="11.1471" y1="13.3433" x2="4.53043" y2="8.3362" gradientUnits="userSpaceOnUse"><stop offset="0.0123038" stop-color="#FFE279"/><stop offset="0.461286" stop-color="#FFB896"/><stop offset="0.740864" stop-color="#FFB896"/></linearGradient></defs></svg>
