<svg viewBox="0 0 16 16" fill="none" xmlns="http://www.w3.org/2000/svg"><path d="M4.90848 8.8807C4.11927 10.1484 4.11975 11.9051 5.2821 13.1323C5.38092 13.231 4.99357 13.5119 5.14034 13.7892C5.23222 14.0047 5.49016 14.1194 5.60456 14.1906C7.48279 15.1644 10.3305 14.5075 11.3797 12.8221C12.4289 11.1366 11.5455 8.77801 9.86006 7.72877C8.17462 6.67952 5.95772 7.19526 4.90848 8.8807Z" fill="url(#simplified-rstest-16-5)"/><path d="M4.60654 8.69284C5.75959 6.84073 8.19574 6.27399 10.0479 7.42697C10.9653 7.99812 11.6589 8.92017 11.9838 9.92784C12.3093 10.9372 12.2725 12.0609 11.6816 13.0102C11.0936 13.9548 10.0248 14.582 8.8842 14.8499C7.74145 15.1184 6.4701 15.0401 5.44083 14.5065L5.42849 14.5L5.4166 14.4928C5.40461 14.4853 5.25345 14.4023 5.15713 14.3335C5.04723 14.2549 4.90384 14.13 4.81971 13.9431C4.66044 13.6268 4.81853 13.3341 4.88299 13.2198C3.73683 11.8698 3.777 10.0254 4.60654 8.69284ZM9.86004 7.72889C8.17461 6.67965 5.95771 7.19542 4.90846 8.88084L4.87203 8.94058C4.11951 10.2033 4.13784 11.9244 5.282 13.1324C5.38082 13.2311 4.99353 13.5121 5.1403 13.7894C5.23218 14.0048 5.49005 14.1196 5.60445 14.1908C7.45335 15.1494 10.2417 14.5278 11.3292 12.9004L11.3797 12.8222C12.4125 11.1631 11.5726 8.8517 9.93845 7.77905L9.86004 7.72889Z" fill="#473535"/><path d="M9.9257 7.78978C8.18631 6.70695 5.92676 7.19357 4.87898 8.87667C4.08781 10.1476 4.21409 11.7371 5.0721 12.9057C4.64384 11.8687 4.6964 10.6659 5.32134 9.66206C6.36913 7.97899 8.62859 7.49248 10.368 8.57531C10.7938 8.84042 11.1489 9.17507 11.4271 9.55395C11.1373 8.85242 10.6275 8.2267 9.9257 7.78978Z" fill="#FF806C"/><g filter="url(#simplified-rstest-16-3)"><path d="M8.45915 9.2783L7.42716 9.2783L7.39539 10.2561L8.5222 9.7298L8.45915 9.2783Z" fill="#008564"/></g><path d="M8.45915 9.2783L7.42716 9.2783L7.39539 10.2561L8.5222 9.7298L8.45915 9.2783Z" stroke="#564341" stroke-width="0.145059"/><mask id="simplified-rstest-16-1" fill="white"><path d="M9.49828 8.33248C10.1824 7.99758 10.7338 7.44212 11.0637 6.75559C11.3936 6.06907 11.4828 5.29147 11.3168 4.5481C11.1509 3.80472 10.7395 3.13886 10.1489 2.65782C9.55838 2.17677 8.82308 1.90855 8.0615 1.89638C7.29992 1.8842 6.55642 2.12878 5.9508 2.59071C5.34519 3.05264 4.91272 3.70501 4.7231 4.4427C4.53347 5.18039 4.59773 5.96044 4.90552 6.65716C5.21331 7.35387 5.7467 7.92668 6.41974 8.28327L7.07798 7.0409C6.684 6.83216 6.37177 6.49685 6.1916 6.08901C6.01143 5.68117 5.97381 5.22455 6.08481 4.79272C6.19581 4.3609 6.44897 3.97902 6.80348 3.70862C7.15799 3.43822 7.59322 3.29504 8.03903 3.30217C8.48484 3.3093 8.91527 3.46631 9.26096 3.7479C9.60665 4.02949 9.84746 4.41927 9.94461 4.85442C10.0417 5.28958 9.98956 5.74476 9.79644 6.14664C9.60333 6.54851 9.28054 6.87367 8.88009 7.06971L9.49828 8.33248Z"/></mask><path d="M9.49828 8.33248C10.1824 7.99758 10.7338 7.44212 11.0637 6.75559C11.3936 6.06907 11.4828 5.29147 11.3168 4.5481C11.1509 3.80472 10.7395 3.13886 10.1489 2.65782C9.55838 2.17677 8.82308 1.90855 8.0615 1.89638C7.29992 1.8842 6.55642 2.12878 5.9508 2.59071C5.34519 3.05264 4.91272 3.70501 4.7231 4.4427C4.53347 5.18039 4.59773 5.96044 4.90552 6.65716C5.21331 7.35387 5.7467 7.92668 6.41974 8.28327L7.07798 7.0409C6.684 6.83216 6.37177 6.49685 6.1916 6.08901C6.01143 5.68117 5.97381 5.22455 6.08481 4.79272C6.19581 4.3609 6.44897 3.97902 6.80348 3.70862C7.15799 3.43822 7.59322 3.29504 8.03903 3.30217C8.48484 3.3093 8.91527 3.46631 9.26096 3.7479C9.60665 4.02949 9.84746 4.41927 9.94461 4.85442C10.0417 5.28958 9.98956 5.74476 9.79644 6.14664C9.60333 6.54851 9.28054 6.87367 8.88009 7.06971L9.49828 8.33248Z" fill="#83EAD0" stroke="#564341" stroke-width="0.337154" mask="url(#simplified-rstest-16-1)"/><path d="M7.85378 6.19915C7.39698 5.50502 7.13504 5.43257 6.96716 5.39528C7.38499 5.06765 7.63034 5.12564 7.85378 5.66012C7.88897 5.58888 7.92293 5.52192 7.95642 5.45868C8.20615 4.98724 8.43033 4.72277 8.94667 4.43653C8.84431 4.73803 8.86051 5.0146 9.04478 5.21145C8.73094 5.32846 8.36064 5.50556 7.85378 6.19915Z" fill="url(#simplified-rstest-16-6)"/><path d="M8.86137 4.28352C8.9246 4.24847 9.00326 4.25565 9.05877 4.30194C9.1142 4.34824 9.13548 4.42385 9.11242 4.49226C9.02098 4.76158 9.04995 4.96072 9.1722 5.09155C9.21222 5.1343 9.22887 5.19466 9.21548 5.25167C9.20202 5.30857 9.16066 5.35488 9.10587 5.37531C8.95704 5.4308 8.80318 5.49783 8.62651 5.62963C8.44847 5.76247 8.2405 5.96591 7.99486 6.30204C7.961 6.34837 7.90652 6.37528 7.84915 6.37388C7.79191 6.37236 7.7389 6.34302 7.70741 6.29517C7.485 5.95722 7.31765 5.78299 7.19555 5.68983C7.07966 5.60148 6.99908 5.58163 6.92902 5.56607C6.8631 5.55137 6.81139 5.50004 6.79634 5.4342C6.78136 5.36819 6.80595 5.29871 6.85922 5.25694C7.07177 5.09031 7.30043 4.97078 7.53087 5.03631C7.66185 5.07366 7.76545 5.16343 7.85129 5.28477C7.96343 5.08307 8.07938 4.91162 8.2247 4.75766C8.39197 4.58053 8.59258 4.43257 8.86137 4.28352ZM8.73047 4.56615C8.36163 4.80777 8.16799 5.05872 7.95619 5.45854L7.95507 5.46041C7.94738 5.47493 7.93975 5.48973 7.93201 5.50465L7.83547 5.74882C7.81755 5.79352 7.7667 5.81538 7.72193 5.79771C7.67713 5.77983 7.65533 5.729 7.67304 5.68417L7.75867 5.46656C7.75788 5.46518 7.7579 5.46292 7.75711 5.46154C7.59467 5.18124 7.41101 5.12663 7.15521 5.26741C7.09651 5.29972 7.03387 5.34221 6.96695 5.39469C7.02248 5.40702 7.08832 5.42405 7.16809 5.46531C7.31043 5.53894 7.49767 5.69182 7.7495 6.04575C7.78318 6.09308 7.818 6.14413 7.85406 6.19892C7.89208 6.14689 7.92905 6.09735 7.96557 6.05093C8.33032 5.58749 8.62241 5.39476 8.87427 5.28075C8.93312 5.25412 8.99033 5.23139 9.04529 5.2109C9.00272 5.16542 8.96851 5.11613 8.94327 5.06282C8.88856 4.94712 8.87291 4.81426 8.89068 4.67177C8.90016 4.59585 8.91904 4.51666 8.94638 4.43614C8.86818 4.4795 8.79637 4.523 8.73047 4.56615Z" fill="#564341"/><mask id="simplified-rstest-16-2" fill="white"><path d="M9.50064 8.33133C10.1841 7.9961 10.7348 7.44067 11.0643 6.75443C11.3937 6.0682 11.4827 5.29107 11.3168 4.54814C11.151 3.80521 10.74 3.13969 10.15 2.65869C9.56 2.17769 8.82533 1.9092 8.06422 1.89642C7.3031 1.88364 6.55983 2.12733 5.95403 2.58826C5.34822 3.04918 4.91512 3.70054 4.72444 4.43748C4.53376 5.17443 4.59659 5.9541 4.90281 6.65101C5.20903 7.34791 5.74084 7.92152 6.41263 8.27949L6.69034 7.75833C6.13554 7.4627 5.69635 6.98899 5.44346 6.41345C5.19056 5.83791 5.13868 5.19402 5.29615 4.58541C5.45363 3.9768 5.8113 3.43888 6.3116 3.05822C6.81191 2.67757 7.42574 2.47632 8.0543 2.48687C8.68287 2.49742 9.2896 2.71916 9.77685 3.11639C10.2641 3.51362 10.6035 4.06325 10.7405 4.6768C10.8774 5.29035 10.804 5.93213 10.5319 6.49886C10.2598 7.06559 9.80498 7.52429 9.24057 7.80114L9.50064 8.33133Z"/></mask><path d="M9.50064 8.33133C10.1841 7.9961 10.7348 7.44067 11.0643 6.75443C11.3937 6.0682 11.4827 5.29107 11.3168 4.54814C11.151 3.80521 10.74 3.13969 10.15 2.65869C9.56 2.17769 8.82533 1.9092 8.06422 1.89642C7.3031 1.88364 6.55983 2.12733 5.95403 2.58826C5.34822 3.04918 4.91512 3.70054 4.72444 4.43748C4.53376 5.17443 4.59659 5.9541 4.90281 6.65101C5.20903 7.34791 5.74084 7.92152 6.41263 8.27949L6.69034 7.75833C6.13554 7.4627 5.69635 6.98899 5.44346 6.41345C5.19056 5.83791 5.13868 5.19402 5.29615 4.58541C5.45363 3.9768 5.8113 3.43888 6.3116 3.05822C6.81191 2.67757 7.42574 2.47632 8.0543 2.48687C8.68287 2.49742 9.2896 2.71916 9.77685 3.11639C10.2641 3.51362 10.6035 4.06325 10.7405 4.6768C10.8774 5.29035 10.804 5.93213 10.5319 6.49886C10.2598 7.06559 9.80498 7.52429 9.24057 7.80114L9.50064 8.33133Z" fill="#008564" stroke="#564341" stroke-width="0.337154" mask="url(#simplified-rstest-16-2)"/><path d="M12.285 5.93849C12.4131 5.039 12.2549 4.12198 11.8328 3.31741L11.3031 3.59532C11.6669 4.28869 11.8032 5.07895 11.6927 5.85412L12.285 5.93849Z" fill="#FFD95F"/><path fill-rule="evenodd" clip-rule="evenodd" d="M11.8323 3.31736C11.8325 3.31785 11.8328 3.31833 11.8331 3.31882C11.8616 3.37319 11.8888 3.42807 11.9149 3.48342C12.2483 4.19103 12.3837 4.97589 12.3067 5.7543C12.3006 5.81574 12.2932 5.87713 12.2844 5.93845L11.6922 5.85407C11.8026 5.07891 11.6663 4.28864 11.3025 3.59528L11.8323 3.31736ZM11.7506 3.56966L11.549 3.67538C11.8427 4.30596 11.963 5.00351 11.8976 5.69602L12.1229 5.72812C12.1947 4.9883 12.0661 4.24267 11.7506 3.56966Z" fill="#564341"/><path d="M11.4136 7.98822C11.8042 7.48702 12.0796 6.90597 12.2203 6.28634L11.6369 6.15388C11.5156 6.68786 11.2783 7.1886 10.9417 7.62052L11.4136 7.98822Z" fill="#FFD95F"/><path d="M11.6497 3.00237C11.3063 2.46332 10.8477 2.00704 10.3069 1.66631C9.76613 1.32557 9.1566 1.10885 8.5221 1.0317L8.44989 1.62554C8.99669 1.69203 9.52198 1.87879 9.98801 2.17243C10.454 2.46607 10.8492 2.85928 11.1452 3.32382L11.6497 3.00237Z" fill="#FFD95F"/><path d="M8.17445 1.00359C7.39976 0.97229 6.63088 1.14967 5.9482 1.51718C5.26551 1.8847 4.69409 2.42885 4.29366 3.09276L4.80592 3.40172C5.151 2.82958 5.64344 2.36064 6.23176 2.04392C6.82008 1.7272 7.48268 1.57434 8.1503 1.60132L8.17445 1.00359Z" fill="#FFD95F"/><path d="M4.17968 3.29368C3.76454 4.07321 3.59783 4.96109 3.70192 5.83812C3.80602 6.71514 4.17593 7.53933 4.76201 8.20003L5.20953 7.80305C4.70446 7.23368 4.38568 6.52341 4.29597 5.76761C4.20626 5.01181 4.34993 4.24665 4.70769 3.57487L4.17968 3.29368Z" fill="#FFD95F"/><path d="M4.59656 3.61139C4.25932 4.27994 4.12343 5.03259 4.21179 5.7774C4.30018 6.52209 4.60846 7.22203 5.09265 7.79303L4.77136 8.07819C4.229 7.44154 3.88474 6.65995 3.78601 5.82819C3.68724 4.99599 3.838 4.15447 4.21667 3.40826L4.59656 3.61139ZM12.1171 6.34869C11.9808 6.89852 11.7356 7.41459 11.3964 7.86823L11.0585 7.60358C11.3586 7.20015 11.575 6.74174 11.6971 6.25397L12.1171 6.34869ZM11.8387 3.51959C12.1656 4.21336 12.2981 4.98299 12.2225 5.74615C12.2194 5.77812 12.2147 5.80992 12.2108 5.84186L11.7841 5.78131C11.8724 5.04351 11.7437 4.29735 11.413 3.6319L11.7948 3.43073C11.8096 3.46024 11.8247 3.48979 11.8387 3.51959ZM11.7118 3.49518L11.5096 3.60065L11.4384 3.63776L11.4725 3.711C11.7598 4.328 11.8773 5.01094 11.8134 5.68854L11.8065 5.76862L11.8856 5.77936L12.1112 5.81158L12.1981 5.82428L12.2069 5.73639C12.2802 4.98165 12.1488 4.22085 11.827 3.53424L11.7899 3.45416L11.7118 3.49518ZM8.08679 1.08698L8.06921 1.51569C7.41532 1.50376 6.76898 1.65939 6.19226 1.96979C5.61565 2.2802 5.12931 2.73393 4.77917 3.28619L4.41101 3.06549C4.80096 2.44697 5.34352 1.93893 5.98816 1.59186C6.6328 1.24482 7.35578 1.07196 8.08679 1.08698ZM8.5946 1.12701C9.18679 1.21087 9.75501 1.41825 10.2616 1.73737C10.768 2.05641 11.1999 2.47991 11.5311 2.9776L11.1688 3.20807C10.8717 2.76398 10.4857 2.38581 10.0331 2.10065C9.58015 1.81529 9.07211 1.62993 8.54285 1.55377L8.5946 1.12701Z" stroke="#564341" stroke-width="0.168577"/><g filter="url(#simplified-rstest-16-4)"><path d="M7.20068 8.11753C7.1487 7.75475 7.43017 7.43007 7.79665 7.43007L8.1114 7.43007C8.47691 7.43007 8.75811 7.75312 8.70771 8.11515L8.53129 9.38236L8.09575 9.99692L7.82163 9.99692L7.38192 9.38236L7.20068 8.11753Z" fill="#83EAD0"/></g><path d="M8.11096 7.3578C8.52034 7.3578 8.83538 7.71991 8.77893 8.12538L8.60315 9.39198L8.60022 9.40956L8.59045 9.42421L8.15491 10.0385L8.13342 10.0687L7.78479 10.0687L7.76331 10.0394L7.32288 9.42421L7.31311 9.41054L7.31018 9.39296L7.12952 8.12733C7.07155 7.72122 7.38624 7.35789 7.79651 7.3578L8.11096 7.3578Z" stroke="#564341" stroke-width="0.144495"/><path d="M7.95544 7.72182C8.24705 7.72194 8.47062 7.98115 8.4281 8.26967L8.30994 9.06947L8.30798 9.08412L8.30017 9.09682L8.00623 9.57729L7.94177 9.6808L7.88123 9.57533L7.60681 9.09486L7.59998 9.08217L7.59802 9.06947L7.48181 8.26772C7.44049 7.97973 7.66443 7.72182 7.95544 7.72182Z" fill="#008564" stroke="#564341" stroke-width="0.144495"/><ellipse cx="7.96156" cy="8.20946" rx="0.222061" ry="0.224851" fill="url(#simplified-rstest-16-7)"/><ellipse cx="9.45565" cy="11.5366" rx="0.595976" ry="0.433348" transform="rotate(162.091 9.45565 11.5366)" fill="white"/><ellipse cx="9.38102" cy="12.8879" rx="1.12474" ry="0.716649" transform="rotate(156.698 9.38102 12.8879)" fill="#FEFEFE"/><path d="M6.42298 14.6853C4.9515 14.2597 4.75391 13.798 5.01831 13.3406C5.45733 12.5811 7.27505 12.6827 7.3178 11.9736C7.3418 11.5754 6.96671 11.1935 7.20906 10.6132C7.52498 9.8568 9.19862 10.0625 8.96815 8.82506" stroke="#473535" stroke-width="0.355636" stroke-linecap="round"/><defs><filter id="simplified-rstest-16-3" x="7.31909" y="9.20576" width="1.28235" height="1.16604" filterUnits="userSpaceOnUse" color-interpolation-filters="sRGB"><feFlood flood-opacity="0" result="BackgroundImageFix"/><feBlend mode="normal" in="SourceGraphic" in2="BackgroundImageFix" result="shape"/><feColorMatrix in="SourceAlpha" type="matrix" values="0 0 0 0 0 0 0 0 0 0 0 0 0 0 0 0 0 0 127 0" result="hardAlpha"/><feOffset dx="0.386824"/><feComposite in2="hardAlpha" operator="arithmetic" k2="-1" k3="1"/><feColorMatrix type="matrix" values="0 0 0 0 0 0 0 0 0 0 0 0 0 0 0 0 0 0 0.25 0"/><feBlend mode="normal" in2="shape" result="effect1_innerShadow_3781_45336"/></filter><filter id="simplified-rstest-16-4" x="7.04993" y="7.28558" width="1.80811" height="2.87993" filterUnits="userSpaceOnUse" color-interpolation-filters="sRGB"><feFlood flood-opacity="0" result="BackgroundImageFix"/><feBlend mode="normal" in="SourceGraphic" in2="BackgroundImageFix" result="shape"/><feColorMatrix in="SourceAlpha" type="matrix" values="0 0 0 0 0 0 0 0 0 0 0 0 0 0 0 0 0 0 127 0" result="hardAlpha"/><feOffset dy="0.0240824"/><feGaussianBlur stdDeviation="0.0120412"/><feComposite in2="hardAlpha" operator="arithmetic" k2="-1" k3="1"/><feColorMatrix type="matrix" values="0 0 0 0 0 0 0 0 0 0 0 0 0 0 0 0 0 0 0.25 0"/><feBlend mode="normal" in2="shape" result="effect1_innerShadow_3781_45336"/></filter><linearGradient id="simplified-rstest-16-5" x1="10.9847" y1="13.4785" x2="4.9086" y2="8.88054" gradientUnits="userSpaceOnUse"><stop offset="0.0123038" stop-color="#FFE279"/><stop offset="0.461286" stop-color="#FFB896"/><stop offset="0.740864" stop-color="#FFB896"/></linearGradient><linearGradient id="simplified-rstest-16-6" x1="7.86507" y1="4.3436" x2="7.86507" y2="5.97457" gradientUnits="userSpaceOnUse"><stop stop-color="#FFE768"/><stop offset="0.4" stop-color="#FFE768"/><stop offset="0.7" stop-color="#FFBD4A"/><stop offset="1" stop-color="#FFBD4A"/></linearGradient><linearGradient id="simplified-rstest-16-7" x1="8.18362" y1="8.21414" x2="7.73999" y2="8.22484" gradientUnits="userSpaceOnUse"><stop stop-color="#FFE768"/><stop offset="0.4" stop-color="#FFE768"/><stop offset="0.7" stop-color="#FFBD4A"/><stop offset="1" stop-color="#FFBD4A"/></linearGradient></defs></svg>
